<svg height='300px' width='300px' xmlns="http://www.w3.org/2000/svg" xmlns:xlink="http://www.w3.org/1999/xlink" version="1.1" x="0px" y="0px" viewBox="0 0 100 100">
	<path d="M14.736,80.683c1.199,0,2.398-0.457,3.311-1.369l6.636-6.636l0.453,0.453c0.766,0.766,1.771,1.147,2.777,1.147  s2.012-0.382,2.777-1.147l42.019-42.019c1.53-1.531,1.53-4.023,0-5.555l-0.453-0.453l6.623-6.623c1.825-1.825,1.825-4.795,0-6.621  c-1.827-1.827-4.798-1.823-6.621,0l-6.623,6.623l-0.453-0.453c-1.482-1.484-4.069-1.484-5.554,0L17.609,60.049  c-0.742,0.742-1.15,1.729-1.15,2.777s0.408,2.035,1.15,2.776l0.453,0.453l-6.636,6.636c-1.824,1.826-1.824,4.796,0,6.622  C12.339,80.227,13.538,80.683,14.736,80.683z M73.672,13.274c1.044-1.044,2.745-1.046,3.793,0c1.045,1.046,1.045,2.748,0,3.793  l-6.623,6.623l-3.793-3.793L73.672,13.274z M19.023,61.463l42.019-42.019c0.364-0.364,0.849-0.564,1.363-0.564  s0.998,0.2,1.362,0.564l7.527,7.526c0.751,0.752,0.751,1.975,0,2.727L29.276,71.716c-0.752,0.75-1.975,0.75-2.727,0l-7.526-7.527  c-0.364-0.364-0.564-0.848-0.564-1.362S18.659,61.827,19.023,61.463z M12.84,74.105l6.636-6.636l3.793,3.794l-6.636,6.636  c-1.044,1.044-2.745,1.046-3.793,0C11.795,76.854,11.795,75.151,12.84,74.105z"></path>
	<path d="M40.5,10.497c-2.275-0.696-4.803-0.036-7.125,1.852c-2.11,1.715-3.804,4.284-4.646,7.047  c-1.021,3.35-1.015,6.237,0.021,8.586c0.962,2.185,2.756,3.73,5.187,4.471c0.846,0.259,1.695,0.386,2.53,0.386  c1.52,0,2.989-0.423,4.288-1.254c2.141-1.369,3.797-3.812,4.787-7.062c0.839-2.75,0.82-5.847-0.049-8.497  C44.564,13.195,42.744,11.181,40.5,10.497z M43.63,23.938c-0.852,2.791-2.218,4.853-3.953,5.962c-1.532,0.98-3.316,1.203-5.157,0.64  c-1.856-0.565-3.219-1.729-3.939-3.364c-0.824-1.87-0.803-4.358,0.062-7.195h0.001c0.729-2.393,2.185-4.608,3.994-6.079  c1.353-1.1,2.755-1.67,4.057-1.67c0.42,0,0.829,0.059,1.224,0.18c1.613,0.491,2.953,2.036,3.676,4.238  C44.337,18.916,44.351,21.573,43.63,23.938z"></path>
	<path d="M15.621,46.301c1.27,0.786,2.665,1.184,4.125,1.183c0.875,0,1.773-0.142,2.682-0.428c2.377-0.749,4.2-2.372,5.132-4.571  c0.992-2.34,0.977-5.291-0.044-8.533c-1.911-6.069-7.559-10.146-12.091-8.717c-3.99,1.258-6.821,7.182-4.676,13.996  C11.801,42.57,13.439,44.949,15.621,46.301z M16.026,27.143c0.404-0.128,0.828-0.188,1.262-0.188c3.195,0,6.968,3.305,8.319,7.599  c0.876,2.782,0.915,5.255,0.111,7.151c-0.71,1.675-2.056,2.865-3.893,3.443c-1.849,0.585-3.633,0.395-5.151-0.547  c-1.738-1.076-3.127-3.141-4.018-5.97c0-0.001,0-0.001,0-0.001C11.094,33.666,12.699,28.19,16.026,27.143z"></path>
	<path d="M75.486,90.14c0.41,0.06,0.83,0.089,1.257,0.089c2.189,0,4.578-0.781,6.986-2.295c5.387-3.386,7.896-9.883,5.368-13.903  c-1.265-2.012-3.608-3.171-6.599-3.265c-2.721-0.08-5.68,0.749-8.126,2.287c-2.964,1.863-4.85,4.052-5.604,6.505  c-0.702,2.281-0.358,4.624,0.994,6.775C71.09,88.443,73.123,89.795,75.486,90.14z M70.681,80.146  c0.602-1.954,2.246-3.821,4.757-5.399c2.021-1.271,4.435-1.986,6.677-1.986c0.107,0,0.215,0.002,0.322,0.005  c2.305,0.072,4.068,0.899,4.968,2.33c1.892,3.009-0.412,8.426-4.739,11.146c-2.47,1.554-4.856,2.217-6.891,1.92  c-1.8-0.262-3.293-1.262-4.317-2.892C70.424,83.625,70.155,81.854,70.681,80.146z"></path>
	<path d="M68.433,38.801c-5.025,5.025-6.58,11.906-4.161,16.642l-29.28,26.682c-1.056,0.976-1.677,2.321-1.704,3.693  c-0.023,1.218,0.418,2.344,1.243,3.169c0.804,0.804,1.893,1.244,3.074,1.244c0.032,0,0.063-0.001,0.095-0.001  c1.34-0.026,2.655-0.62,3.624-1.631c0.027-0.023,0.053-0.049,0.077-0.075l26.631-29.225c1.509,0.813,3.242,1.22,5.075,1.22  c3.924,0,8.282-1.822,11.752-5.292c5.915-5.915,7.043-14.412,2.515-18.94C82.847,31.76,74.35,32.888,68.433,38.801z M79.641,50.027  c-2.564,2.564-5.335,4.595-7.801,5.717c-2.071,0.941-3.758,1.128-4.405,0.481c-0.646-0.646-0.462-2.334,0.48-4.405  c1.122-2.466,3.152-5.236,5.717-7.801c4.549-4.549,8.81-6.582,10.984-6.582c0.551,0,0.968,0.131,1.222,0.384  C87.092,39.075,85.341,44.326,79.641,50.027z M69.847,40.215c3.089-3.089,6.936-4.728,10.326-4.728c0.813,0,1.598,0.097,2.341,0.288  c-3.195,0.922-7.105,3.639-10.296,6.83c-2.729,2.729-4.904,5.708-6.123,8.387c-0.299,0.657-0.522,1.278-0.692,1.87  C64.426,49.019,66.023,44.038,69.847,40.215z M39.983,87.108c-0.021,0.02-0.041,0.039-0.06,0.06  c-0.608,0.658-1.434,1.045-2.264,1.062c-0.694-0.011-1.278-0.222-1.716-0.657c-0.437-0.438-0.671-1.047-0.657-1.716  c0.017-0.83,0.403-1.655,1.057-2.259l29.042-26.464c0.172,0.206,0.34,0.415,0.532,0.608c0.145,0.145,0.302,0.274,0.455,0.407  L39.983,87.108z M83.444,53.812c-3.823,3.823-8.804,5.421-12.648,4.443c0.593-0.17,1.214-0.392,1.872-0.691  c2.679-1.219,5.657-3.394,8.387-6.123c3.191-3.192,5.907-7.102,6.829-10.297C88.872,44.991,87.274,49.982,83.444,53.812z"></path>
</svg>